<svg width="1200" height="630" viewBox="0 0 1200 630" fill="none" xmlns="http://www.w3.org/2000/svg">
  <rect width="1200" height="630" fill="#081310"/>
  <rect x="72" y="64" width="1056" height="502" rx="42" fill="#173C2E"/>
  <path d="M72 444C160 383 258 366 366 393C451 414 518 457 609 452C724 446 778 372 887 376C975 379 1050 429 1128 491V566H72V444Z" fill="#315D42"/>
  <path d="M770 385C770 296.634 841.634 225 930 225H950C1038.37 225 1110 296.634 1110 385V470H770V385Z" fill="#244A37"/>
  <path d="M850 390L940 255L1030 390H850Z" fill="#F6BF5F"/>
  <path d="M906 470V374H974V470" fill="#F4EFE3"/>
  <circle cx="832" cy="228" r="30" fill="#F6BF5F" fill-opacity="0.22"/>
  <circle cx="1036" cy="174" r="42" fill="#F6BF5F" fill-opacity="0.18"/>
  <path d="M801 470C823 418 860 396 910 402C958 408 987 431 1008 470" stroke="#8DD6A0" stroke-width="22" stroke-linecap="round"/>
  <path d="M1030 470C1050 438 1080 422 1120 422" stroke="#8DD6A0" stroke-width="22" stroke-linecap="round"/>
  <text x="126" y="216" fill="#F4EFE3" font-family="Georgia, 'Times New Roman', serif" font-size="112" font-weight="700">Tiny Ranch</text>
  <text x="132" y="300" fill="#F6BF5F" font-family="Avenir Next, Trebuchet MS, sans-serif" font-size="36" font-weight="700">COZY BROWSER RANCH GAME</text>
  <text x="132" y="380" fill="#B6C8BE" font-family="Avenir Next, Trebuchet MS, sans-serif" font-size="40">Plant crops, care for animals, craft barn goods,</text>
  <text x="132" y="432" fill="#B6C8BE" font-family="Avenir Next, Trebuchet MS, sans-serif" font-size="40">and ship village orders from the open web.</text>
</svg>
